<?xml version="1.0" encoding="UTF-8"?>
<svg id="Camada_1" data-name="Camada 1" xmlns="http://www.w3.org/2000/svg" viewBox="0 0 52.39 32.75">
  <defs>
    <style>
      .cls-1, .cls-2 {
        fill: #fff;
      }

      .cls-2 {
        fill-rule: evenodd;
      }
    </style>
  </defs>
  <path class="cls-2" d="M33.16,18.6c-.44,.43-.64,1.04-.54,1.65l.67,3.87c.21,1.2-.76,2.18-1.85,2.18-.29,0-.59-.07-.87-.22l-3.5-1.83c-.27-.14-.57-.21-.87-.21s-.6,.07-.87,.21l-3.5,1.83c-.29,.15-.59,.22-.87,.22-1.09,0-2.06-.98-1.85-2.18l.67-3.87c.1-.6-.1-1.22-.54-1.65l-2.83-2.74c-1.11-1.08-.5-2.95,1.04-3.18l3.91-.56c.61-.09,1.14-.47,1.41-1.02l1.75-3.52c.34-.69,1.01-1.04,1.68-1.04s1.34,.35,1.68,1.04l1.75,3.52c.27,.55,.8,.93,1.41,1.02l3.91,.56c1.54,.22,2.15,2.1,1.04,3.18l-2.83,2.74Z"/>
  <path class="cls-1" d="M48.76,10.91v-3.63c0-4.02-3.26-7.28-7.28-7.28V3.64c2.01,0,3.64,1.63,3.64,3.64v3.63c0,2.19,.98,4.13,2.51,5.46-1.53,1.33-2.51,3.27-2.51,5.46v3.64c0,2.01-1.63,3.64-3.64,3.64v3.64c4.02,0,7.28-3.26,7.28-7.28v-3.64c0-2.01,1.63-3.64,3.64-3.64v-3.64c-2.01,0-3.64-1.63-3.64-3.64Z"/>
  <path class="cls-1" d="M7.28,10.92v-3.64c0-2.01,1.63-3.64,3.64-3.64V0C6.9,0,3.64,3.26,3.64,7.28v3.64c0,2.01-1.63,3.64-3.64,3.64v3.64H0c2.01,0,3.64,1.63,3.64,3.64v3.63c0,4.02,3.26,7.28,7.28,7.28v-3.64c-2.01,0-3.64-1.63-3.64-3.64v-3.63c0-2.19-.98-4.13-2.51-5.46,1.53-1.33,2.51-3.27,2.51-5.46Z"/>
</svg>